<?xml version="1.0" encoding="UTF-8"?>
<svg id="Camada_1" xmlns="http://www.w3.org/2000/svg" version="1.1" viewBox="0 0 250 250">
  <!-- Generator: Adobe Illustrator 29.4.0, SVG Export Plug-In . SVG Version: 2.1.0 Build 152)  -->
  <path d="M209.41,173.97c-31.81-31.81-137.1-31.81-168.91,0-16.59,16.59-21.69,38.7-23.22,49.14-.46,3.13,1.97,5.93,5.13,5.93h205.16c3.14,0,5.56-2.76,5.14-5.88-1.4-10.31-6.29-32.18-23.31-49.19Z"/>
  <path d="M56.29,41.82h137.43c2.4,0,4.63,1.53,5.87,4.03l14.52,29.27c1.32,2.66,1.32,5.99,0,8.65l-14.52,29.27c-1.24,2.5-3.47,4.03-5.87,4.03H56.29c-2.4,0-4.63-1.53-5.87-4.03l-14.52-29.27c-1.32-2.66-1.32-5.99,0-8.65l14.52-29.27c1.24-2.5,3.47-4.03,5.87-4.03Z"/>
</svg>