<?xml version="1.0" encoding="UTF-8"?>
<svg id="Camada_1" xmlns="http://www.w3.org/2000/svg" version="1.1" viewBox="0 0 250 250">
  <!-- Generator: Adobe Illustrator 29.4.0, SVG Export Plug-In . SVG Version: 2.1.0 Build 152)  -->
  <path d="M154.51,77.95c15.1-9.5,25.3-26.06,25.95-45.05.04-1.06-.84-1.93-1.9-1.93h-107.12c-1.06,0-1.94.87-1.9,1.93.65,18.99,10.85,35.56,25.95,45.05,1.62,1.02.93,3.5-.98,3.5h-23.07c-1.06,0-1.94.88-1.9,1.94,1.02,29.75,25.46,53.56,55.46,53.56s54.44-23.8,55.46-53.56c.04-1.06-.84-1.94-1.9-1.94h-23.07c-1.91,0-2.6-2.48-.98-3.5Z"/>
  <path d="M209.41,173.97c-31.81-31.81-137.1-31.81-168.91,0-16.59,16.59-21.69,38.7-23.22,49.14-.46,3.13,1.97,5.93,5.13,5.93h205.16c3.14,0,5.56-2.76,5.14-5.88-1.4-10.31-6.29-32.18-23.31-49.19Z"/>
</svg>