<?xml version="1.0" encoding="UTF-8"?>
<svg id="Camada_1" xmlns="http://www.w3.org/2000/svg" version="1.1" viewBox="0 0 250 250">
  <!-- Generator: Adobe Illustrator 29.4.0, SVG Export Plug-In . SVG Version: 2.1.0 Build 152)  -->
  <path d="M209.41,173.97c-31.81-31.81-137.1-31.81-168.91,0-16.59,16.59-21.69,38.7-23.22,49.14-.46,3.13,1.97,5.93,5.13,5.93h205.16c3.14,0,5.56-2.76,5.14-5.88-1.4-10.31-6.29-32.18-23.31-49.19Z"/>
  <path d="M172.99,51.49v80.55c0,3.52-4.91,5.94-9.48,4.66l-35.98-10.09c-1.63-.46-3.44-.46-5.06,0l-35.99,10.09c-4.55,1.28-9.48-1.14-9.48-4.66V51.49c0-3.51,4.92-5.94,9.48-4.66l15.15,4.25,19.16-33.19c1.87-3.23,6.54-3.23,8.41,0l19.17,33.19,15.14-4.25c4.56-1.28,9.48,1.15,9.48,4.66Z"/>
</svg>