<?xml version="1.0" encoding="UTF-8"?>
<svg id="Camada_1" xmlns="http://www.w3.org/2000/svg" version="1.1" viewBox="0 0 250 250">
  <!-- Generator: Adobe Illustrator 29.4.0, SVG Export Plug-In . SVG Version: 2.1.0 Build 152)  -->
  <path d="M157.08,89.39l26.18-19.02c5.01-3.64,2.43-11.56-3.75-11.56h-32.35c-2.77,0-5.22-1.78-6.08-4.41l-10-30.77c-1.91-5.89-10.24-5.89-12.15,0l-10,30.77c-.86,2.63-3.31,4.41-6.08,4.41h-32.35c-6.19,0-8.76,7.92-3.75,11.56l26.18,19.02c2.24,1.63,3.18,4.51,2.32,7.14l-10,30.77c-1.91,5.89,4.82,10.78,9.83,7.14l26.18-19.02c2.24-1.63,5.27-1.63,7.51,0l26.18,19.02c5.01,3.64,11.74-1.26,9.83-7.14l-10-30.77c-.86-2.63.08-5.52,2.32-7.14Z"/>
  <path d="M209.41,173.97c-31.81-31.81-137.1-31.81-168.91,0-16.59,16.59-21.69,38.7-23.22,49.14-.46,3.13,1.97,5.93,5.13,5.93h205.16c3.14,0,5.56-2.76,5.14-5.88-1.4-10.31-6.29-32.18-23.31-49.19Z"/>
</svg>