<?xml version="1.0" encoding="UTF-8"?>
<svg id="Camada_1" xmlns="http://www.w3.org/2000/svg" version="1.1" viewBox="0 0 250 250">
  <!-- Generator: Adobe Illustrator 29.4.0, SVG Export Plug-In . SVG Version: 2.1.0 Build 152)  -->
  <path d="M89.98,130.23c1.77,3.06,5.03,4.94,8.56,4.94h52.92c3.53,0,6.8-1.88,8.56-4.94l26.46-45.83c1.77-3.06,1.77-6.83,0-9.89l-26.46-45.83c-1.77-3.06-5.03-4.94-8.56-4.94h-52.92c-3.53,0-6.8,1.88-8.56,4.94l-26.46,45.83c-1.77,3.06-1.77,6.83,0,9.89l26.46,45.83Z"/>
  <path d="M209.41,173.97c-31.81-31.81-137.1-31.81-168.91,0-16.59,16.59-21.69,38.7-23.22,49.14-.46,3.13,1.97,5.93,5.13,5.93h205.16c3.14,0,5.56-2.76,5.14-5.88-1.4-10.31-6.29-32.18-23.31-49.19Z"/>
</svg>