<?xml version="1.0" encoding="UTF-8"?>
<svg id="Camada_1" xmlns="http://www.w3.org/2000/svg" version="1.1" viewBox="0 0 250 250">
  <!-- Generator: Adobe Illustrator 29.4.0, SVG Export Plug-In . SVG Version: 2.1.0 Build 152)  -->
  <path d="M184.44,33.91c-5.05,0-9.87,1.29-14.24,3.63-9.76,5.21-20.7,5.21-30.46,0-4.37-2.34-9.18-3.63-14.24-3.63s-10.11,1.36-14.58,3.81c-9.79,5.38-21.01,5.38-30.79,0-4.46-2.45-9.39-3.81-14.58-3.81h-25.36c-1.66,0-3,1.68-3,3.76v83.57c0,2.08,1.34,3.76,3,3.76h25.36c5.18,0,10.11-1.36,14.58-3.81,9.79-5.38,21.01-5.38,30.79,0,4.46,2.45,9.39,3.81,14.58,3.81s9.87-1.29,14.24-3.63c9.76-5.21,20.7-5.21,30.46,0,4.37,2.34,9.18,3.63,14.24,3.63h25.36c1.66,0,3-1.68,3-3.76V37.67c0-2.08-1.34-3.76-3-3.76h-25.36Z"/>
  <path d="M209.41,173.97c-31.81-31.81-137.1-31.81-168.91,0-16.59,16.59-21.69,38.7-23.22,49.14-.46,3.13,1.97,5.93,5.13,5.93h205.16c3.14,0,5.56-2.76,5.14-5.88-1.4-10.31-6.29-32.18-23.31-49.19Z"/>
</svg>