<?xml version="1.0" encoding="UTF-8"?>
<svg id="Camada_1" xmlns="http://www.w3.org/2000/svg" version="1.1" viewBox="0 0 250 250">
  <!-- Generator: Adobe Illustrator 29.4.0, SVG Export Plug-In . SVG Version: 2.1.0 Build 152)  -->
  <path d="M209.41,173.97c-31.81-31.81-137.1-31.81-168.91,0-16.59,16.59-21.69,38.7-23.22,49.14-.46,3.13,1.97,5.93,5.13,5.93h205.16c3.14,0,5.56-2.76,5.14-5.88-1.4-10.31-6.29-32.18-23.31-49.19Z"/>
  <g>
    <path d="M125,106.65c-15,0-27.2-12.2-27.2-27.2s12.2-27.2,27.2-27.2,27.2,12.2,27.2,27.2-12.2,27.2-27.2,27.2ZM125,60.08c-10.68,0-19.37,8.69-19.37,19.37s8.69,19.37,19.37,19.37,19.37-8.69,19.37-19.37-8.69-19.37-19.37-19.37Z"/>
    <path d="M125,123.62c-24.35,0-44.16-19.81-44.16-44.16s19.81-44.16,44.16-44.16,44.16,19.81,44.16,44.16-19.81,44.16-44.16,44.16ZM125,43.12c-20.04,0-36.34,16.3-36.34,36.34s16.3,36.34,36.34,36.34,36.34-16.3,36.34-36.34-16.3-36.34-36.34-36.34Z"/>
    <path d="M125,139.87c-33.31,0-60.41-27.1-60.41-60.41s27.1-60.41,60.41-60.41,60.41,27.1,60.41,60.41-27.1,60.41-60.41,60.41ZM125,26.87c-29,0-52.59,23.59-52.59,52.59s23.59,52.59,52.59,52.59,52.59-23.59,52.59-52.59-23.59-52.59-52.59-52.59Z"/>
  </g>
</svg>