<?xml version="1.0" encoding="UTF-8"?>
<svg id="Camada_1" xmlns="http://www.w3.org/2000/svg" version="1.1" viewBox="0 0 250 250">
  <!-- Generator: Adobe Illustrator 29.4.0, SVG Export Plug-In . SVG Version: 2.1.0 Build 152)  -->
  <path d="M209.41,173.97c-31.81-31.81-137.1-31.81-168.91,0-16.59,16.59-21.69,38.7-23.22,49.14-.46,3.13,1.97,5.93,5.13,5.93h205.16c3.14,0,5.56-2.76,5.14-5.88-1.4-10.31-6.29-32.18-23.31-49.19Z"/>
  <path d="M207.43,79.45c0,27.37-22.19,49.56-49.55,49.56-12.62,0-24.14-4.72-32.88-12.48-8.75,7.76-20.26,12.48-32.89,12.48-27.37,0-49.55-22.19-49.55-49.56s22.18-49.55,49.55-49.55c12.62,0,24.14,4.72,32.89,12.48,8.74-7.76,20.26-12.48,32.88-12.48,27.36,0,49.55,22.19,49.55,49.55Z"/>
</svg>