<?xml version="1.0" encoding="UTF-8"?>
<svg id="Camada_1" xmlns="http://www.w3.org/2000/svg" version="1.1" viewBox="0 0 250 250">
  <!-- Generator: Adobe Illustrator 29.4.0, SVG Export Plug-In . SVG Version: 2.1.0 Build 152)  -->
  <path d="M81.28,130.47l40.85-11.46c1.85-.52,3.89-.52,5.74,0l40.85,11.46c5.18,1.45,10.76-1.29,10.76-5.29V33.73c0-4-5.59-6.74-10.76-5.29l-40.85,11.46c-1.85.52-3.89.52-5.74,0l-40.85-11.46c-5.18-1.45-10.76,1.29-10.76,5.29v91.45c0,4,5.59,6.74,10.76,5.29Z"/>
  <path d="M209.41,173.97c-31.81-31.81-137.1-31.81-168.91,0-16.59,16.59-21.69,38.7-23.22,49.14-.46,3.13,1.97,5.93,5.13,5.93h205.16c3.14,0,5.56-2.76,5.14-5.88-1.4-10.31-6.29-32.18-23.31-49.19Z"/>
</svg>