<?xml version="1.0" encoding="UTF-8"?>
<svg id="Camada_1" xmlns="http://www.w3.org/2000/svg" version="1.1" viewBox="0 0 250 250">
  <!-- Generator: Adobe Illustrator 29.4.0, SVG Export Plug-In . SVG Version: 2.1.0 Build 152)  -->
  <path d="M119.7,135.38c3.7,3.7,9.7,3.7,13.39,0l48.21-48.21-.14-.14c12.45-15.25,11.57-37.76-2.65-51.97-14.22-14.22-36.73-15.1-51.97-2.65l-.14-.14c-12.35-12.35-31.58-15.24-46.63-6.38-23.06,13.58-25.81,43.74-8.27,61.28l48.21,48.21Z"/>
  <path d="M209.41,173.97c-31.81-31.81-137.1-31.81-168.91,0-16.59,16.59-21.69,38.7-23.22,49.14-.46,3.13,1.97,5.93,5.13,5.93h205.16c3.14,0,5.56-2.76,5.14-5.88-1.4-10.31-6.29-32.18-23.31-49.19Z"/>
</svg>