<?xml version="1.0" encoding="UTF-8"?>
<svg id="Camada_1" xmlns="http://www.w3.org/2000/svg" version="1.1" viewBox="0 0 250 250">
  <!-- Generator: Adobe Illustrator 29.4.0, SVG Export Plug-In . SVG Version: 2.1.0 Build 152)  -->
  <path d="M84.66,128.82h80.68c2.08,0,3.78-1.69,3.78-3.78,0-7.22,2.72-14.25,7.83-19.35,6.74-6.71,10.91-15.98,10.91-26.24s-4.17-19.53-10.91-26.24c-5.12-5.1-7.83-12.13-7.83-19.35,0-2.08-1.69-3.78-3.78-3.78h-80.68c-2.08,0-3.78,1.69-3.78,3.78h0c0,7.22-2.72,14.26-7.83,19.35-6.74,6.71-10.91,15.98-10.91,26.24s4.17,19.54,10.91,26.24c5.12,5.1,7.83,12.13,7.83,19.35h0c0,2.09,1.69,3.78,3.78,3.78Z"/>
  <path d="M209.41,173.97c-31.81-31.81-137.1-31.81-168.91,0-16.59,16.59-21.69,38.7-23.22,49.14-.46,3.13,1.97,5.93,5.13,5.93h205.16c3.14,0,5.56-2.76,5.14-5.88-1.4-10.31-6.29-32.18-23.31-49.19Z"/>
</svg>