<?xml version="1.0" encoding="UTF-8"?>
<svg id="Camada_1" xmlns="http://www.w3.org/2000/svg" version="1.1" viewBox="0 0 559.18 96.67">
  <!-- Generator: Adobe Illustrator 29.4.0, SVG Export Plug-In . SVG Version: 2.1.0 Build 152)  -->
  <g>
    <path d="M529.95,3.09V0h11.7v3.09h-4.18v11.61h-3.34V3.09h-4.18Z"/>
    <path d="M542.71,0h4.17c1.36,3.13,2.69,6.26,4.05,9.38h.04c1.36-3.13,2.69-6.26,4.05-9.38h4.17v14.7h-3.39V6.2h-.06l-3.62,8.5h-2.34l-3.62-8.5h-.06v8.5h-3.39V0Z"/>
  </g>
  <g>
    <path d="M0,2.09h57.29l13.1,13.11v26.48l-5.81,5.81,10,10v24.99l-14.19,14.19H0V2.09ZM49.45,42.76l5.54-5.54v-16.48l-5.4-5.41H15.27v27.43h34.18ZM52.69,83.42l6.49-6.48v-15.13l-6.49-6.35H15.27v27.97h37.42Z"/>
    <path d="M85.39.2h15.27v96.46h-15.27V.2Z"/>
    <path d="M112.81,84.64v-15.94l12.02-11.89h34.72v-10l-5-5h-21.21l-5,5v4.32h-15v-7.84l13.78-13.92h33.64l13.78,13.92v53.37h-13.92v-10.4l-10.81,10.4h-24.99l-12.02-12.02ZM148.34,84.64l11.21-10.81v-5.67h-27.43l-4.32,4.19v8.24l4.05,4.05h16.48Z"/>
    <path d="M186.51,2.09h57.29l13.1,13.11v26.48l-5.81,5.81,10,10v24.99l-14.19,14.19h-60.39V2.09ZM235.96,42.76l5.54-5.54v-16.48l-5.4-5.41h-34.32v27.43h34.18ZM239.2,83.42l6.49-6.48v-15.13l-6.49-6.35h-37.42v27.97h37.42Z"/>
    <path d="M271.89.2h15.27v96.46h-15.27V.2Z"/>
    <path d="M299.32,84.64v-15.94l12.02-11.89h34.72v-10l-5-5h-21.21l-5,5v4.32h-15v-7.84l13.78-13.92h33.64l13.78,13.92v53.37h-13.92v-10.4l-10.81,10.4h-24.99l-12.02-12.02ZM334.85,84.64l11.21-10.81v-5.67h-27.43l-4.32,4.19v8.24l4.05,4.05h16.48Z"/>
    <path d="M372.53,1.94h15.67v81.2h28.47v13.38h-44.15V1.94Z"/>
    <path d="M422.26,84.49v-15.94l12.02-11.89h34.72v-10l-5-5h-21.21l-5,5v4.32h-15v-7.84l13.78-13.92h33.64l13.78,13.92v53.37h-13.92v-10.4l-10.81,10.4h-24.99l-12.02-12.02ZM457.79,84.49l11.21-10.81v-5.67h-27.43l-4.32,4.19v8.24l4.05,4.05h16.48Z"/>
    <path d="M495.28,82.6V.05h15.27v39.72l10.94-10.54h24.18l13.51,13.51v40.26l-13.51,13.51h-36.61l-13.78-13.92ZM538.24,83.41l5.67-5.67v-29.72l-5.67-5.67h-14.32l-13.38,13.38v22.02l5.67,5.67h22.02Z"/>
  </g>
</svg>